<svg width="39" height="39" viewBox="0 0 39 39" fill="none" xmlns="http://www.w3.org/2000/svg">
<g clip-path="url(#clip0_1458_23944)">
<path d="M19.5523 38.9259C18.8476 38.7633 18.1972 38.5464 17.7635 37.9502C17.4925 37.5708 17.2757 37.0829 17.0589 36.6493C16.9505 36.4324 16.8963 36.324 16.6794 36.2698C15.2701 35.9988 13.8608 35.511 12.5599 34.8605C10.5001 33.8306 8.71129 32.4213 7.24775 30.6325C7.08513 30.4157 6.92252 30.4157 6.7057 30.4699C5.35057 30.9577 3.88703 30.3615 3.18237 29.1148C2.4777 27.8138 2.74872 26.2419 3.94124 25.3746C4.15806 25.212 4.21226 25.0494 4.10385 24.7783C3.12816 21.5802 3.12816 18.3279 4.10385 15.1298C4.15806 14.913 4.15806 14.7504 3.94124 14.5878C2.74872 13.7205 2.42349 12.1486 3.12816 10.8476C3.83283 9.54671 5.29637 9.00466 6.7057 9.4925C6.97672 9.60091 7.08513 9.4925 7.24775 9.32989C8.71129 7.54112 10.5001 6.13179 12.5599 5.10189C13.8066 4.45143 15.1617 4.01779 16.5168 3.74676C16.8421 3.69256 17.0589 3.58415 17.1673 3.1505C17.3841 1.84958 18.6308 0.9823 19.986 0.9823C21.3411 0.9823 22.5336 1.95799 22.8046 3.25891C22.8588 3.58415 23.0214 3.69256 23.2925 3.74676C25.5149 4.1804 27.5205 5.04768 29.3634 6.34861C30.6102 7.21589 31.6943 8.19158 32.6157 9.32989C32.7784 9.54671 32.941 9.60091 33.212 9.4925C34.5129 9.00466 36.0307 9.60091 36.7353 10.7934C37.44 12.0943 37.169 13.6663 36.0307 14.5336C35.8138 14.6962 35.7596 14.8588 35.8138 15.1298C36.7895 18.3279 36.7895 21.5802 35.8138 24.7783C35.7596 24.9952 35.7596 25.1578 35.9765 25.3204C37.0606 26.1335 37.44 27.6512 36.8979 28.8979C36.3017 30.1989 34.8924 30.9577 33.5914 30.5783C32.9952 30.4157 32.7242 30.5783 32.3447 31.0119C29.9597 33.7222 26.9242 35.4568 23.4009 36.2156C23.0756 36.2698 22.8588 36.4324 22.8046 36.8119C22.4794 37.9502 21.7205 38.6006 20.6364 38.9259C20.528 38.9259 20.4738 38.9801 20.3654 38.9801C20.0402 38.9259 19.8233 38.9259 19.5523 38.9259ZM19.9317 11.6607C15.3785 11.6607 11.6384 15.4009 11.6384 19.9541C11.6384 24.5073 15.3785 28.2475 19.9317 28.2475C24.485 28.2475 28.2251 24.5073 28.2251 19.9541C28.2251 15.4009 24.485 11.6607 19.9317 11.6607ZM17.1131 4.83086C13.3729 5.53553 10.3374 7.3785 7.95242 10.3056C8.60288 11.1187 8.8197 11.9859 8.60288 12.9616C8.60288 13.07 8.71129 13.1785 8.76549 13.2327C9.47016 13.6121 10.1748 13.9915 10.8795 14.371C11.2047 14.5336 11.53 14.7504 11.8552 14.913C13.8066 12.0401 16.4626 10.4682 19.9317 10.4682C23.4009 10.4682 26.0027 12.0943 27.9541 14.913C28.8756 14.4252 29.7429 13.9373 30.6102 13.4495C31.0438 13.2327 31.3148 13.0158 31.2064 12.4196C31.0438 11.6065 31.369 10.9018 31.9111 10.2514C29.5261 7.3243 26.4906 5.48132 22.7504 4.77666C22.371 5.91497 21.6121 6.56543 20.4738 6.83645C20.4738 7.64953 20.4738 8.46261 20.4738 9.22148C20.0944 9.22148 19.7149 9.22148 19.2813 9.22148C19.2813 8.4084 19.2813 7.59532 19.2813 6.83645C18.2514 6.56543 17.4925 5.91497 17.1131 4.83086ZM7.95242 29.6026C10.3916 32.5297 13.3729 34.3727 17.1131 35.0773C17.4925 33.9932 18.2514 33.2885 19.3897 33.0175C19.3897 32.2044 19.3897 31.3914 19.3897 30.6325C19.8233 30.6325 20.1486 30.6325 20.5822 30.6325C20.5822 31.4456 20.5822 32.2586 20.5822 33.0175C21.7205 33.2885 22.4252 33.9932 22.8046 35.0773C26.5448 34.3184 29.5803 32.5297 31.9653 29.6026C31.2606 28.5185 31.2064 28.1933 31.3148 26.9466C31.3148 26.8381 31.2606 26.7297 31.2064 26.6755C30.1765 26.0793 29.0924 25.5372 28.0083 24.941C26.0569 27.8138 23.4009 29.3858 19.9317 29.3858C16.4626 29.3858 13.8066 27.7596 11.8552 24.941C10.7711 25.5372 9.74118 26.0793 8.71129 26.6755C8.65708 26.7297 8.54867 26.8381 8.60288 26.9466C8.8197 27.9764 8.54867 28.8437 7.95242 29.6026ZM11.3131 23.9111C10.1748 21.255 10.1748 18.599 11.3131 15.9429C10.1748 15.3467 9.09072 14.6962 7.95242 14.0999C7.19354 14.913 6.32626 15.2382 5.24216 15.1298C4.26647 18.3279 4.26647 21.4718 5.24216 24.6699C6.32626 24.5615 7.19354 24.941 7.95242 25.6998C9.09072 25.1578 10.1748 24.5615 11.3131 23.9111ZM31.9111 25.754C32.6157 25.0494 33.4288 24.6157 34.4587 24.6699C34.5129 24.6699 34.6755 24.5073 34.7297 24.4531C35.2718 22.7185 35.4886 20.984 35.3802 19.141C35.326 17.7859 35.1092 16.485 34.6213 15.184C33.5914 15.2924 32.7242 14.9672 32.0195 14.2626C31.9653 14.2083 31.8027 14.2083 31.6943 14.2626C31.2064 14.5336 30.7186 14.8046 30.2849 15.0214C29.7429 15.3467 29.1466 15.6177 28.6046 15.9429C29.7429 18.599 29.7429 21.255 28.6046 23.9111C29.6887 24.5615 30.7728 25.1578 31.9111 25.754ZM19.9317 5.69814C20.9074 5.69814 21.7205 4.88507 21.7205 3.96358C21.7205 2.98789 20.9616 2.17481 19.986 2.17481C19.0103 2.17481 18.1972 2.98789 18.1972 3.96358C18.143 4.88507 18.9561 5.69814 19.9317 5.69814ZM7.46457 12.257C7.46457 11.2813 6.65149 10.4682 5.6758 10.4682C4.70011 10.4682 3.88703 11.2813 3.88703 12.257C3.88703 13.2327 4.70011 13.9915 5.6758 13.9915C6.7057 13.9915 7.46457 13.1784 7.46457 12.257ZM35.9223 12.257C35.9223 11.2813 35.1092 10.4682 34.1877 10.4682C33.212 10.4682 32.3989 11.2271 32.3989 12.2028C32.3989 13.1785 33.212 13.9915 34.1877 13.9915C35.1092 14.0457 35.9223 13.2327 35.9223 12.257ZM7.46457 27.6512C7.46457 26.6755 6.65149 25.8624 5.6758 25.8624C4.70011 25.8624 3.88703 26.6755 3.88703 27.6512C3.88703 28.6269 4.70011 29.44 5.6758 29.44C6.7057 29.44 7.46457 28.6269 7.46457 27.6512ZM35.9223 27.6512C35.9223 26.6755 35.1092 25.8624 34.1877 25.8624C33.212 25.8624 32.3989 26.6213 32.3989 27.597C32.3989 28.5727 33.212 29.3858 34.1877 29.3858C35.1092 29.44 35.9223 28.6269 35.9223 27.6512ZM19.9317 34.21C18.9561 34.21 18.143 35.0231 18.143 35.9446C18.143 36.9203 18.9561 37.7334 19.9317 37.7334C20.9074 37.7334 21.7205 36.9203 21.7205 35.9446C21.7205 34.9689 20.9074 34.21 19.9317 34.21Z" fill="white"/>
<path d="M18.034 19.249C16.8956 18.219 16.733 16.9723 17.0583 15.617C17.3835 14.2076 18.7929 13.2861 20.1481 13.3945C21.7202 13.5571 22.7501 14.7497 22.8586 16.3218C22.9128 17.4059 22.6959 18.3817 21.7744 19.1948C21.937 19.3032 22.0996 19.4658 22.2623 19.5742C23.1296 20.1163 24.0511 20.6584 24.9185 21.1463C25.1353 21.2547 25.2437 21.4173 25.1895 21.6884C25.1895 22.2305 25.1895 22.7725 25.1895 23.2604C25.2437 23.9651 24.8643 24.453 24.268 24.6698C23.6717 24.8867 23.0212 25.0493 22.4249 25.1035C20.4734 25.2661 18.4677 25.3203 16.5162 24.9951C16.1909 24.9409 15.8657 24.8324 15.5404 24.724C14.8899 24.453 14.5105 23.9651 14.5647 23.2604C14.5647 22.7183 14.5647 22.1762 14.5647 21.6342C14.5647 21.4173 14.6189 21.3089 14.7815 21.2005C15.7031 20.6584 16.5704 20.1163 17.4919 19.5742C17.7088 19.52 17.8714 19.4116 18.034 19.249ZM19.6061 24.1277C20.6902 24.0735 21.4491 24.0735 22.2081 24.0193C22.6959 23.9651 23.238 23.8567 23.7259 23.7483C23.9969 23.6941 24.0511 23.5315 24.0511 23.2604C24.2138 22.3931 23.8885 21.7968 23.0212 21.4715C22.9128 21.4173 22.8044 21.3631 22.7501 21.3089C22.0996 20.8752 21.4491 20.3874 20.7986 19.9537C20.7444 19.8995 20.5818 19.8995 20.4734 19.8995C20.0397 19.8995 19.6603 19.8995 19.2266 19.8995C19.1182 19.8995 18.9556 19.8995 18.9014 19.9537C18.1966 20.7126 17.2751 21.1463 16.4078 21.6342C15.8657 21.9594 15.5947 22.2847 15.7031 22.9352C15.7573 23.6941 15.7573 23.6941 16.462 23.9109C16.5162 23.9109 16.5162 23.9109 16.5704 23.9109C17.763 23.9651 18.8471 24.0735 19.6061 24.1277ZM18.1424 16.647C18.1424 16.8096 18.1424 16.9722 18.1424 17.1349C18.1966 18.0564 18.9556 18.7069 19.8229 18.7611C20.6902 18.8153 21.5034 18.219 21.6118 17.3517C21.666 16.8638 21.666 16.376 21.5576 15.9423C21.2865 14.8581 19.9855 14.316 19.0098 14.8581C18.4135 15.2376 18.1424 15.8881 18.1424 16.647Z" fill="white"/>
<path d="M20.528 4.50532C20.1486 4.50532 19.7691 4.50532 19.3896 4.50532C19.3896 4.12586 19.3896 3.7464 19.3896 3.36694C19.7691 3.36694 20.1486 3.36694 20.528 3.36694C20.528 3.7464 20.528 4.12586 20.528 4.50532Z" fill="white"/>
<path d="M6.27119 12.7978C5.89173 12.7978 5.51227 12.7978 5.13281 12.7978C5.13281 12.4183 5.13281 12.0389 5.13281 11.6594C5.51227 11.6594 5.89173 11.6594 6.27119 11.6594C6.27119 12.0389 6.27119 12.4183 6.27119 12.7978Z" fill="white"/>
<path d="M34.7292 11.6594C34.7292 12.0389 34.7292 12.4183 34.7292 12.7978C34.3497 12.7978 33.9703 12.7978 33.5908 12.7978C33.5908 12.4183 33.5908 12.0389 33.5908 11.6594C33.9703 11.6594 34.3497 11.6594 34.7292 11.6594Z" fill="white"/>
<path d="M6.27119 28.2471C5.89173 28.2471 5.51227 28.2471 5.13281 28.2471C5.13281 27.8677 5.13281 27.4882 5.13281 27.1088C5.51227 27.1088 5.89173 27.1088 6.27119 27.1088C6.27119 27.4882 6.27119 27.8677 6.27119 28.2471Z" fill="white"/>
<path d="M34.7292 27.1088C34.7292 27.4882 34.7292 27.8677 34.7292 28.2471C34.3497 28.2471 33.9703 28.2471 33.5908 28.2471C33.5908 27.8677 33.5908 27.4882 33.5908 27.1088C33.9703 27.1088 34.3497 27.1088 34.7292 27.1088Z" fill="white"/>
<path d="M20.528 35.4022C20.528 35.7817 20.528 36.1611 20.528 36.5406C20.1486 36.5406 19.7691 36.5406 19.3896 36.5406C19.3896 36.1611 19.3896 35.7817 19.3896 35.4022C19.7691 35.4022 20.0944 35.4022 20.528 35.4022Z" fill="white"/>
</g>
<defs>
<clipPath id="clip0_1458_23944">
<rect width="37.9978" height="37.9978" fill="white" transform="translate(0.978516 0.981445)"/>
</clipPath>
</defs>
</svg>
